<svg xmlns="http://www.w3.org/2000/svg" xmlns:xlink="http://www.w3.org/1999/xlink" width="1513" height="675" viewBox="0 0 1513 675"><defs><style>.a{fill:none;}.b{clip-path:url(#a);}.c{fill:#e8e8fc;}.d{clip-path:url(#b);}.e{clip-path:url(#c);}.f{clip-path:url(#d);}</style><clipPath id="a"><rect class="a" width="72" height="100"/></clipPath><clipPath id="b"><rect class="a" width="204" height="63"/></clipPath><clipPath id="c"><rect class="a" width="75" height="162"/></clipPath><clipPath id="d"><rect class="a" width="57" height="63"/></clipPath></defs><g transform="translate(-64 -59)"><g class="b" transform="translate(64 59)"><g transform="translate(-51 -57)"><circle class="c" cx="4" cy="4" r="4" transform="translate(51 57)"/></g><g transform="translate(-32 -57)"><circle class="c" cx="4" cy="4" r="4" transform="translate(51 57)"/></g><g transform="translate(-13 -57)"><circle class="c" cx="4" cy="4" r="4" transform="translate(51 57)"/></g><g transform="translate(6 -57)"><circle class="c" cx="4" cy="4" r="4" transform="translate(51 57)"/></g><g transform="translate(-51 -36)"><circle class="c" cx="4" cy="4" r="4" transform="translate(51 57)"/></g><g transform="translate(-32 -36)"><circle class="c" cx="4" cy="4" r="4" transform="translate(51 57)"/></g><g transform="translate(-13 -36)"><circle class="c" cx="4" cy="4" r="4" transform="translate(51 57)"/></g><g transform="translate(6 -36)"><circle class="c" cx="4" cy="4" r="4" transform="translate(51 57)"/></g><g transform="translate(-51 -15)"><circle class="c" cx="4" cy="4" r="4" transform="translate(51 57)"/></g><g transform="translate(-32 -15)"><circle class="c" cx="4" cy="4" r="4" transform="translate(51 57)"/></g><g transform="translate(-13 -15)"><circle class="c" cx="4" cy="4" r="4" transform="translate(51 57)"/></g><g transform="translate(6 -15)"><circle class="c" cx="4" cy="4" r="4" transform="translate(51 57)"/></g><g transform="translate(-51 6)"><circle class="c" cx="4" cy="4" r="4" transform="translate(51 57)"/></g><g transform="translate(-32 6)"><circle class="c" cx="4" cy="4" r="4" transform="translate(51 57)"/></g><g transform="translate(-13 6)"><circle class="c" cx="4" cy="4" r="4" transform="translate(51 57)"/></g><g transform="translate(6 6)"><circle class="c" cx="4" cy="4" r="4" transform="translate(51 57)"/></g><g transform="translate(-51 27)"><circle class="c" cx="4" cy="4" r="4" transform="translate(51 57)"/></g><g transform="translate(-32 27)"><circle class="c" cx="4" cy="4" r="4" transform="translate(51 57)"/></g><g transform="translate(-13 27)"><circle class="c" cx="4" cy="4" r="4" transform="translate(51 57)"/></g><g transform="translate(6 27)"><circle class="c" cx="4" cy="4" r="4" transform="translate(51 57)"/></g></g><g class="d" transform="translate(70 639)"><g transform="translate(-51 -57)"><circle class="c" cx="4" cy="4" r="4" transform="translate(51 57)"/></g><g transform="translate(-32 -57)"><circle class="c" cx="4" cy="4" r="4" transform="translate(51 57)"/></g><g transform="translate(-13 -57)"><circle class="c" cx="4" cy="4" r="4" transform="translate(51 57)"/></g><g transform="translate(6 -57)"><circle class="c" cx="4" cy="4" r="4" transform="translate(51 57)"/></g><g transform="translate(25 -57)"><circle class="c" cx="4" cy="4" r="4" transform="translate(51 57)"/></g><g transform="translate(44 -57)"><circle class="c" cx="4" cy="4" r="4" transform="translate(51 57)"/></g><g transform="translate(63 -57)"><circle class="c" cx="4" cy="4" r="4" transform="translate(51 57)"/></g><g transform="translate(82 -57)"><circle class="c" cx="4" cy="4" r="4" transform="translate(51 57)"/></g><g transform="translate(101 -57)"><circle class="c" cx="4" cy="4" r="4" transform="translate(51 57)"/></g><g transform="translate(120 -57)"><circle class="c" cx="4" cy="4" r="4" transform="translate(51 57)"/></g><g transform="translate(139 -57)"><circle class="c" cx="4" cy="4" r="4" transform="translate(51 57)"/></g><g transform="translate(-51 -36)"><circle class="c" cx="4" cy="4" r="4" transform="translate(51 57)"/></g><g transform="translate(-32 -36)"><circle class="c" cx="4" cy="4" r="4" transform="translate(51 57)"/></g><g transform="translate(-13 -36)"><circle class="c" cx="4" cy="4" r="4" transform="translate(51 57)"/></g><g transform="translate(6 -36)"><circle class="c" cx="4" cy="4" r="4" transform="translate(51 57)"/></g><g transform="translate(25 -36)"><circle class="c" cx="4" cy="4" r="4" transform="translate(51 57)"/></g><g transform="translate(44 -36)"><circle class="c" cx="4" cy="4" r="4" transform="translate(51 57)"/></g><g transform="translate(63 -36)"><circle class="c" cx="4" cy="4" r="4" transform="translate(51 57)"/></g><g transform="translate(82 -36)"><circle class="c" cx="4" cy="4" r="4" transform="translate(51 57)"/></g><g transform="translate(101 -36)"><circle class="c" cx="4" cy="4" r="4" transform="translate(51 57)"/></g><g transform="translate(120 -36)"><circle class="c" cx="4" cy="4" r="4" transform="translate(51 57)"/></g><g transform="translate(139 -36)"><circle class="c" cx="4" cy="4" r="4" transform="translate(51 57)"/></g><g transform="translate(-51 -15)"><circle class="c" cx="4" cy="4" r="4" transform="translate(51 57)"/></g><g transform="translate(-32 -15)"><circle class="c" cx="4" cy="4" r="4" transform="translate(51 57)"/></g><g transform="translate(-13 -15)"><circle class="c" cx="4" cy="4" r="4" transform="translate(51 57)"/></g><g transform="translate(6 -15)"><circle class="c" cx="4" cy="4" r="4" transform="translate(51 57)"/></g><g transform="translate(25 -15)"><circle class="c" cx="4" cy="4" r="4" transform="translate(51 57)"/></g><g transform="translate(44 -15)"><circle class="c" cx="4" cy="4" r="4" transform="translate(51 57)"/></g><g transform="translate(63 -15)"><circle class="c" cx="4" cy="4" r="4" transform="translate(51 57)"/></g><g transform="translate(82 -15)"><circle class="c" cx="4" cy="4" r="4" transform="translate(51 57)"/></g><g transform="translate(101 -15)"><circle class="c" cx="4" cy="4" r="4" transform="translate(51 57)"/></g><g transform="translate(120 -15)"><circle class="c" cx="4" cy="4" r="4" transform="translate(51 57)"/></g><g transform="translate(139 -15)"><circle class="c" cx="4" cy="4" r="4" transform="translate(51 57)"/></g></g><g class="e" transform="translate(1502 171)"><g transform="translate(-51 -57)"><circle class="c" cx="4" cy="4" r="4" transform="translate(51 57)"/></g><g transform="translate(-32 -57)"><circle class="c" cx="4" cy="4" r="4" transform="translate(51 57)"/></g><g transform="translate(-13 -57)"><circle class="c" cx="4" cy="4" r="4" transform="translate(51 57)"/></g><g transform="translate(6 -57)"><circle class="c" cx="4" cy="4" r="4" transform="translate(51 57)"/></g><g transform="translate(-51 -36)"><circle class="c" cx="4" cy="4" r="4" transform="translate(51 57)"/></g><g transform="translate(-32 -36)"><circle class="c" cx="4" cy="4" r="4" transform="translate(51 57)"/></g><g transform="translate(-13 -36)"><circle class="c" cx="4" cy="4" r="4" transform="translate(51 57)"/></g><g transform="translate(6 -36)"><circle class="c" cx="4" cy="4" r="4" transform="translate(51 57)"/></g><g transform="translate(-51 -15)"><circle class="c" cx="4" cy="4" r="4" transform="translate(51 57)"/></g><g transform="translate(-32 -15)"><circle class="c" cx="4" cy="4" r="4" transform="translate(51 57)"/></g><g transform="translate(-13 -15)"><circle class="c" cx="4" cy="4" r="4" transform="translate(51 57)"/></g><g transform="translate(6 -15)"><circle class="c" cx="4" cy="4" r="4" transform="translate(51 57)"/></g><g transform="translate(-51 6)"><circle class="c" cx="4" cy="4" r="4" transform="translate(51 57)"/></g><g transform="translate(-32 6)"><circle class="c" cx="4" cy="4" r="4" transform="translate(51 57)"/></g><g transform="translate(-13 6)"><circle class="c" cx="4" cy="4" r="4" transform="translate(51 57)"/></g><g transform="translate(6 6)"><circle class="c" cx="4" cy="4" r="4" transform="translate(51 57)"/></g><g transform="translate(-51 27)"><circle class="c" cx="4" cy="4" r="4" transform="translate(51 57)"/></g><g transform="translate(-32 27)"><circle class="c" cx="4" cy="4" r="4" transform="translate(51 57)"/></g><g transform="translate(-13 27)"><circle class="c" cx="4" cy="4" r="4" transform="translate(51 57)"/></g><g transform="translate(6 27)"><circle class="c" cx="4" cy="4" r="4" transform="translate(51 57)"/></g><g transform="translate(-51 48)"><circle class="c" cx="4" cy="4" r="4" transform="translate(51 57)"/></g><g transform="translate(-32 48)"><circle class="c" cx="4" cy="4" r="4" transform="translate(51 57)"/></g><g transform="translate(-13 48)"><circle class="c" cx="4" cy="4" r="4" transform="translate(51 57)"/></g><g transform="translate(6 48)"><circle class="c" cx="4" cy="4" r="4" transform="translate(51 57)"/></g><g transform="translate(-51 69)"><circle class="c" cx="4" cy="4" r="4" transform="translate(51 57)"/></g><g transform="translate(-32 69)"><circle class="c" cx="4" cy="4" r="4" transform="translate(51 57)"/></g><g transform="translate(-13 69)"><circle class="c" cx="4" cy="4" r="4" transform="translate(51 57)"/></g><g transform="translate(6 69)"><circle class="c" cx="4" cy="4" r="4" transform="translate(51 57)"/></g><g transform="translate(-51 90)"><circle class="c" cx="4" cy="4" r="4" transform="translate(51 57)"/></g><g transform="translate(-32 90)"><circle class="c" cx="4" cy="4" r="4" transform="translate(51 57)"/></g><g transform="translate(-13 90)"><circle class="c" cx="4" cy="4" r="4" transform="translate(51 57)"/></g><g transform="translate(6 90)"><circle class="c" cx="4" cy="4" r="4" transform="translate(51 57)"/></g></g><g transform="translate(0 -70)"><g class="f" transform="translate(1423 741)"><g transform="translate(-51 -57)"><circle class="c" cx="4" cy="4" r="4" transform="translate(51 57)"/></g><g transform="translate(-32 -57)"><circle class="c" cx="4" cy="4" r="4" transform="translate(51 57)"/></g><g transform="translate(-13 -57)"><circle class="c" cx="4" cy="4" r="4" transform="translate(51 57)"/></g><g transform="translate(-51 -36)"><circle class="c" cx="4" cy="4" r="4" transform="translate(51 57)"/></g><g transform="translate(-32 -36)"><circle class="c" cx="4" cy="4" r="4" transform="translate(51 57)"/></g><g transform="translate(-13 -36)"><circle class="c" cx="4" cy="4" r="4" transform="translate(51 57)"/></g><g transform="translate(-51 -15)"><circle class="c" cx="4" cy="4" r="4" transform="translate(51 57)"/></g><g transform="translate(-32 -15)"><circle class="c" cx="4" cy="4" r="4" transform="translate(51 57)"/></g><g transform="translate(-13 -15)"><circle class="c" cx="4" cy="4" r="4" transform="translate(51 57)"/></g></g></g></g></svg>